<?xml version="1.0" encoding="UTF-8"?>
<svg version="1.1" xmlns="http://www.w3.org/2000/svg" width="206" height="220">
<path d="M0 0 C67.98 0 135.96 0 206 0 C206 72.6 206 145.2 206 220 C138.02 220 70.04 220 0 220 C0 147.4 0 74.8 0 0 Z " fill="#FCFBFB" transform="translate(0,0)"/>
<path d="M0 0 C0.02332977 14.97686306 0.04097956 29.95372472 0.05181217 44.93060207 C0.05697496 51.88416081 0.06401734 58.83770827 0.07543945 65.79125977 C0.08644694 72.49557209 0.09227621 79.19987025 0.09487724 85.90419197 C0.09673202 88.46837613 0.10035364 91.03255962 0.10573006 93.59673882 C0.11293659 97.17445158 0.11399111 100.75211519 0.11352539 104.32983398 C0.11712067 105.40157364 0.12071594 106.47331329 0.12442017 107.57752991 C0.1230455 108.54653229 0.12167084 109.51553467 0.12025452 110.51390076 C0.12163721 111.78459239 0.12163721 111.78459239 0.12304783 113.08095455 C0 115 0 115 -1 116 C-15.58872574 117.51112152 -32.14553242 119.10966129 -44.25537109 109.74804688 C-45.53140159 108.7068946 -46.79586267 107.65140153 -48.04833984 106.58203125 C-51.50586845 103.77933105 -55.330021 101.56187477 -59.125 99.25 C-64.52979881 95.88462021 -69.86474242 92.43567963 -75.140625 88.87109375 C-76.17687012 88.17661133 -77.21311523 87.48212891 -78.28076172 86.76660156 C-80.31159663 85.4020292 -82.33440441 84.025418 -84.34814453 82.63574219 C-85.27224121 82.01731445 -86.19633789 81.39888672 -87.1484375 80.76171875 C-87.96489746 80.20444092 -88.78135742 79.64716309 -89.62255859 79.07299805 C-92.58779884 77.73471186 -93.94577786 77.9998289 -97 79 C-99.22678567 80.27407405 -101.31820127 81.56893638 -103.4375 83 C-104.69650023 83.82960065 -105.95561785 84.65902317 -107.21484375 85.48828125 C-108.16786377 86.1217749 -108.16786377 86.1217749 -109.14013672 86.76806641 C-111.90909564 88.60216548 -114.70436743 90.3943927 -117.5 92.1875 C-118.05107422 92.54231445 -118.60214844 92.89712891 -119.16992188 93.26269531 C-122.94597154 95.69194005 -126.73420316 98.10143379 -130.52734375 100.50390625 C-131.501875 101.12177002 -132.47640625 101.73963379 -133.48046875 102.3762207 C-135.41036632 103.59913714 -137.3413096 104.82040532 -139.2734375 106.03979492 C-140.17191406 106.60931885 -141.07039063 107.17884277 -141.99609375 107.765625 C-142.79200928 108.26868164 -143.5879248 108.77173828 -144.40795898 109.29003906 C-147.6650636 111.43874027 -150.82480747 113.73200534 -154 116 C-164.56 116 -175.12 116 -186 116 C-186 78.05 -186 40.1 -186 1 C-181.79057175 2.05235706 -179.46879618 3.48763185 -175.875 5.875 C-169.3543501 10.16392706 -162.72683265 14.25223965 -156.04248047 18.28076172 C-150.35527492 21.7253029 -150.35527492 21.7253029 -147.7265625 23.7578125 C-145.78609521 25.31534741 -145.78609521 25.31534741 -142 26 C-142 30.62 -142 35.24 -142 40 C-138.37 40 -134.74 40 -131 40 C-131 41.98 -131 43.96 -131 46 C-127.7 46 -124.4 46 -121 46 C-121 47.98 -121 49.96 -121 52 C-117.04 52 -113.08 52 -109 52 C-109 44.08 -109 36.16 -109 28 C-98.44 28 -87.88 28 -77 28 C-77 35.92 -77 43.84 -77 52 C-73.04 52 -69.08 52 -65 52 C-65 50.02 -65 48.04 -65 46 C-61.7 46 -58.4 46 -55 46 C-55 44.02 -55 42.04 -55 40 C-51.37 40 -47.74 40 -44 40 C-44.11601562 39.14277344 -44.23203125 38.28554687 -44.3515625 37.40234375 C-45.06241978 28.39476648 -45.06241978 28.39476648 -42.4765625 25 C-39.75267338 23.08849886 -36.94025029 21.56333664 -34 20 C-31.55459197 18.56774243 -29.12614477 17.10901924 -26.69799805 15.64770508 C-24.94175931 14.59135879 -23.18148319 13.54169588 -21.41723633 12.4987793 C-15.659128 9.08029155 -10.26162566 5.47315172 -4.99609375 1.328125 C-3 0 -3 0 0 0 Z " fill="#020202" transform="translate(195,89)"/>
<path d="M0 0 C3 0 3 0 4.875 1.8125 C5.57625 2.534375 6.2775 3.25625 7 4 C8.65071396 5.02611949 10.31970006 6.02308143 12 7 C13.08925493 7.78349916 14.17211968 8.57592475 15.25 9.375 C17.77419528 11.20193363 20.31905716 12.77393613 23.0625 14.25 C27.86382656 16.84040643 32.4023982 19.78548363 36.95141602 22.79003906 C40.52719415 25.13151005 44.14191639 27.16170219 48 29 C48 29.66 48 30.32 48 31 C48.71913574 31.26337158 49.43827148 31.52674316 50.17919922 31.7980957 C53.07821734 33.03332733 55.50595785 34.49395338 58.1328125 36.23046875 C59.10476562 36.86919922 60.07671875 37.50792969 61.078125 38.16601562 C62.08359375 38.83310547 63.0890625 39.50019531 64.125 40.1875 C67.09360245 42.14514138 70.06337724 44.10091642 73.03613281 46.05224609 C75.03494711 47.36579968 77.02900605 48.68661436 79.01855469 50.01416016 C79.97922852 50.64499512 80.93990234 51.27583008 81.9296875 51.92578125 C82.78546387 52.49337158 83.64124023 53.06096191 84.52294922 53.64575195 C87.11354886 55.0620792 89.06397965 55.73800555 92 56 C94.48634439 54.83471329 96.59109185 53.66785512 98.875 52.1875 C99.52919922 51.77951172 100.18339844 51.37152344 100.85742188 50.95117188 C106.09597751 47.65764934 111.2347447 44.20927791 116.359375 40.74194336 C121.39751963 37.34870552 126.56190083 34.21096911 131.78808594 31.11767578 C135.90140736 28.67777284 139.90491809 26.12897233 143.859375 23.44140625 C147.11588209 21.24861224 150.44100077 19.16642728 153.7578125 17.06640625 C158.54862348 14.01298576 163.31184669 10.91713091 168.07421875 7.81958008 C170.04555866 6.54017499 172.02199654 5.26906831 174 4 C174.93070313 3.39671875 175.86140625 2.7934375 176.8203125 2.171875 C179 1 179 1 182 1 C182.5127809 10.40457715 182.90201313 19.80426968 183.13986778 29.21983528 C183.25412921 33.59416391 183.40850136 37.95886001 183.65966797 42.32763672 C185.23726574 70.49194958 185.23726574 70.49194958 179.90057373 77.92355347 C174.79950728 82.57675719 169.08448502 85.37193382 162.69833374 87.86766052 C158.74178722 89.5280014 155.36380761 91.84459142 151.875 94.3125 C145.71454837 98.38683292 145.71454837 98.38683292 142 99 C142 99.66 142 100.32 142 101 C141.01 101 140.02 101 139 101 C138.67 97.7 138.34 94.4 138 91 C135.03 90.67 132.06 90.34 129 90 C129 88.02 129 86.04 129 84 C125.7 84 122.4 84 119 84 C119 82.35 119 80.7 119 79 C115.04 79 111.08 79 107 79 C107 86.59 107 94.18 107 102 C96.44 102 85.88 102 75 102 C75 94.41 75 86.82 75 79 C71.37 79 67.74 79 64 79 C64 80.98 64 82.96 64 85 C60.7 85 57.4 85 54 85 C54 86.65 54 88.3 54 90 C50.37 90 46.74 90 43 90 C43 93.63 43 97.26 43 101 C38.28914613 99.62749022 34.3165464 97.59889808 30.1875 95 C29.60291016 94.64421875 29.01832031 94.2884375 28.41601562 93.921875 C24.12991071 91.25982143 24.12991071 91.25982143 23 89 C21.3670381 88.31959921 19.73300102 87.64166845 18.09375 86.9765625 C14.11144621 85.11914469 10.58287208 82.52429624 7 80 C5.80947021 79.48848389 4.61894043 78.97696777 3.39233398 78.44995117 C0.49903335 76.35401685 0.04026119 75.21895551 -0.61630249 71.64831543 C-0.90832627 67.13447527 -0.78672848 62.6241524 -0.68359375 58.10546875 C-0.67053132 56.43111746 -0.66057019 54.75673934 -0.65357971 53.08235168 C-0.62690398 48.68398642 -0.5581883 44.28724986 -0.48065186 39.88952637 C-0.40893062 35.39858025 -0.37704941 30.90736986 -0.34179688 26.41601562 C-0.26681457 17.6099312 -0.14740939 8.80516842 0 0 Z " fill="#D9393F" transform="translate(11,5)"/>
<path d="M0 0 C0.99 0.495 0.99 0.495 2 1 C2 1.99 2 2.98 2 4 C-2.69390843 8.08721278 -8.28212414 10.67049502 -14 13 C-17.17542619 14.6206532 -20.20866551 16.20866551 -22.75 18.75 C-23.1625 19.1625 -23.575 19.575 -24 20 C-24.99 20 -25.98 20 -27 20 C-27.07863281 20.60972656 -27.15726563 21.21945313 -27.23828125 21.84765625 C-28.26093518 24.73730914 -29.46741836 25.12074356 -32.1875 26.4375 C-35.17341059 27.97067755 -37.73852524 29.45799238 -40.25 31.6875 C-45.04671822 35.72110396 -48.76097581 36.45374721 -55 36 C-57.4375 35 -57.4375 35 -59 34 C-59 33.34 -59 32.68 -59 32 C-59.78375 31.773125 -60.5675 31.54625 -61.375 31.3125 C-65.32476791 29.88241162 -68.91865438 28.0707375 -72.6328125 26.12109375 C-74.91350375 24.93632531 -74.91350375 24.93632531 -77.1953125 24.5 C-79 24 -79 24 -80.75 21.5625 C-82 19 -82 19 -82 17 C-76.98142745 18.68616056 -72.82523349 21.54875186 -68.4375 24.4375 C-67.68275391 24.92798828 -66.92800781 25.41847656 -66.15039062 25.92382812 C-60.3905566 29.68421316 -60.3905566 29.68421316 -57.93408203 31.67041016 C-55.99531835 33.28523554 -55.99531835 33.28523554 -53.12109375 32.90234375 C-49.64160592 31.89638419 -47.1130777 30.51377042 -44.0625 28.5625 C-43.50675293 28.21050537 -42.95100586 27.85851074 -42.37841797 27.49584961 C-37.44431613 24.34880021 -32.59674975 21.06838281 -27.74633789 17.79443359 C-22.66656076 14.38697067 -17.47135964 11.20911146 -12.18603516 8.13110352 C-7.94303761 5.64229694 -3.97225627 2.9031924 0 0 Z " fill="#C0454F" transform="translate(155,28)"/>
<path d="M0 0 C2.91796875 -0.48828125 2.91796875 -0.48828125 6.1875 -0.3125 C7.27417969 -0.26738281 8.36085938 -0.22226563 9.48046875 -0.17578125 C10.72763672 -0.08876953 10.72763672 -0.08876953 12 0 C12 0.66 12 1.32 12 2 C12.99 2 13.98 2 15 2 C15 8.93 15 15.86 15 23 C28.365 23.495 28.365 23.495 42 24 C42 17.4 42 10.8 42 4 C42.66 3.67 43.32 3.34 44 3 C44 10.59 44 18.18 44 26 C33.44 26 22.88 26 12 26 C12 18.41 12 10.82 12 3 C8.37 3 4.74 3 1 3 C1 4.98 1 6.96 1 9 C-2.3 9 -5.6 9 -9 9 C-9 10.65 -9 12.3 -9 14 C-12.63 14 -16.26 14 -20 14 C-16.23312136 12.11656068 -14.97041037 11.77942165 -11 12 C-10.67 9.36 -10.34 6.72 -10 4 C-9.34 4 -8.68 4 -8 4 C-8 4.66 -8 5.32 -8 6 C-5.59122743 5.88658466 -5.59122743 5.88658466 -3 5 C-2.5771875 4.1646875 -2.154375 3.329375 -1.71875 2.46875 C-1.1515625 1.6540625 -0.584375 0.839375 0 0 Z " fill="#BA525D" transform="translate(74,81)"/>
<path d="M0 0 C0.99 0 1.98 0 3 0 C3.02332977 14.97686306 3.04097956 29.95372472 3.05181217 44.93060207 C3.05697496 51.88416081 3.06401734 58.83770827 3.07543945 65.79125977 C3.08644694 72.49557209 3.09227621 79.19987025 3.09487724 85.90419197 C3.09673202 88.46837613 3.10035364 91.03255962 3.10573006 93.59673882 C3.11293659 97.17445158 3.11399111 100.75211519 3.11352539 104.32983398 C3.11712067 105.40157364 3.12071594 106.47331329 3.12442017 107.57752991 C3.1230455 108.54653229 3.12167084 109.51553467 3.12025452 110.51390076 C3.12117631 111.36102851 3.1220981 112.20815626 3.12304783 113.08095455 C3 115 3 115 2 116 C-0.3756852 116.0883967 -2.72208674 116.11530305 -5.09765625 116.09765625 C-6.16094398 116.09553383 -6.16094398 116.09553383 -7.24571228 116.09336853 C-9.51801712 116.08775443 -11.79022475 116.07519963 -14.0625 116.0625 C-15.59960796 116.05748681 -17.13671745 116.05292359 -18.67382812 116.04882812 C-22.44925642 116.03778042 -26.22461171 116.02050641 -30 116 C-26 113 -26 113 1 114 C1 77.04 1 40.08 1 2 C0.34 1.67 -0.32 1.34 -1 1 C-0.67 0.67 -0.34 0.34 0 0 Z " fill="#505050" transform="translate(192,89)"/>
<path d="M0 0 C0.46588365 9.42220621 0.81990003 18.84039193 1.03624344 28.27164745 C1.14015988 32.65295813 1.2806358 37.02633616 1.50878906 41.40307617 C2.94726061 69.70505192 2.94726061 69.70505192 -1.99536133 76.90777588 C-7.04273657 81.71258937 -14.72636856 87 -22 87 C-21.67 86.01 -21.34 85.02 -21 84 C-20.01 84 -19.02 84 -18 84 C-18 83.01 -18 82.02 -18 81 C-16 79 -16 79 -13.375 78.875 C-12.59125 78.91625 -11.8075 78.9575 -11 79 C-10.67 78.01 -10.34 77.02 -10 76 C-7.10441559 74.5522078 -5.25811062 74 -2 74 C-2 50.9 -2 27.8 -2 4 C-3.32 4.33 -4.64 4.66 -6 5 C-6.33 5.66 -6.66 6.32 -7 7 C-12.24055755 10.14433453 -12.24055755 10.14433453 -15.19921875 9.58203125 C-16.09060547 9.29392578 -16.09060547 9.29392578 -17 9 C-14.73437454 7.49157829 -12.46313837 5.99317749 -10.1875 4.5 C-9.54490234 4.07074219 -8.90230469 3.64148438 -8.24023438 3.19921875 C-3.33984375 0 -3.33984375 0 0 0 Z " fill="#BC5F66" transform="translate(193,6)"/>
<path d="M0 0 C0.99 0 1.98 0 3 0 C5.1875 2.5 5.1875 2.5 7 5 C5.35 4.67 3.7 4.34 2 4 C2.061175 12.81450392 2.13825446 21.62868264 2.23571491 30.4428606 C2.28046719 34.53553618 2.31971232 38.6281111 2.34643555 42.72094727 C2.37242049 46.66983715 2.412788 50.61834066 2.46318626 54.56699181 C2.47988771 56.07444139 2.49138156 57.58195786 2.49761391 59.08948708 C2.5072199 61.19915011 2.53523419 63.30781739 2.56762695 65.41723633 C2.57873001 66.61858719 2.58983307 67.81993805 2.60127258 69.05769348 C2.75292473 71.98890949 2.75292473 71.98890949 4.40202332 73.84892273 C6.0088133 75.07103419 6.0088133 75.07103419 8 76 C8 76.66 8 77.32 8 78 C9.65 78 11.3 78 13 78 C13 78.99 13 79.98 13 81 C14.11375 81.226875 15.2275 81.45375 16.375 81.6875 C20 83 20 83 21.4375 85.625 C21.623125 86.40875 21.80875 87.1925 22 88 C18.34390958 87.34926728 15.7818065 85.76326873 12.6875 83.75 C11.78386719 83.16734375 10.88023438 82.5846875 9.94921875 81.984375 C8.97597656 81.32953125 8.00273437 80.6746875 7 80 C5.79827148 79.48252197 4.59654297 78.96504395 3.35839844 78.43188477 C0.47994185 76.34228455 0.03764578 75.20536967 -0.61418152 71.64944458 C-0.90828341 67.13512175 -0.78674169 62.62473114 -0.68359375 58.10546875 C-0.67053132 56.43111746 -0.66057019 54.75673934 -0.65357971 53.08235168 C-0.62690398 48.68398642 -0.5581883 44.28724986 -0.48065186 39.88952637 C-0.40893062 35.39858025 -0.37704941 30.90736986 -0.34179688 26.41601562 C-0.26681457 17.6099312 -0.14740939 8.80516842 0 0 Z " fill="#CB7D83" transform="translate(11,5)"/>
<path d="M0 0 C0.66 0.33 1.32 0.66 2 1 C2 1.99 2 2.98 2 4 C-2.69390843 8.08721278 -8.28212414 10.67049502 -14 13 C-18.63077363 15.31897514 -18.63077363 15.31897514 -22.5 18.6875 C-24.96689386 20.84603213 -27.83569879 20.70148102 -31 21 C-27.5066795 17.02200415 -23.42494356 14.752095 -18.875 12.1875 C-12.32739846 8.42544262 -6.06979149 4.50387477 0 0 Z " fill="#BC4952" transform="translate(155,28)"/>
<path d="M0 0 C6 3.33333333 12 6.66666667 18 10 C18 10.66 18 11.32 18 12 C19.08861328 12.39832031 19.08861328 12.39832031 20.19921875 12.8046875 C23.00170928 14.00072948 25.30479352 15.40329107 27.8125 17.125 C28.60269531 17.66382812 29.39289063 18.20265625 30.20703125 18.7578125 C30.79871094 19.16773437 31.39039062 19.57765625 32 20 C31.34 20.66 30.68 21.32 30 22 C29.01 21.67 28.02 21.34 27 21 C27 20.34 27 19.68 27 19 C26.360625 18.896875 25.72125 18.79375 25.0625 18.6875 C24.381875 18.460625 23.70125 18.23375 23 18 C22.67 17.01 22.34 16.02 22 15 C20.783125 14.896875 19.56625 14.79375 18.3125 14.6875 C14.59852427 14.22572682 12.00373615 13.34666887 9 11 C9 10.34 9 9.68 9 9 C8.34 9 7.68 9 7 9 C6.67 8.01 6.34 7.02 6 6 C3.99983534 4.79117904 3.99983534 4.79117904 2 4 C2 3.34 2 2.68 2 2 C1.34 2 0.68 2 0 2 C0 1.34 0 0.68 0 0 Z " fill="#C53E45" transform="translate(41,24)"/>
<path d="M0 0 C0.66 0.66 1.32 1.32 2 2 C3.32348135 2.2977833 4.65932037 2.54298329 6 2.75 C8.15625 3.234375 8.15625 3.234375 10 4 C11.42917783 6.85835565 12 8.82448834 12 12 C13.32 12 14.64 12 16 12 C16.66 10.35 17.32 8.7 18 7 C18.66 7 19.32 7 20 7 C20.33 6.34 20.66 5.68 21 5 C22.98 5 24.96 5 27 5 C27 4.34 27 3.68 27 3 C28.32 3.33 29.64 3.66 31 4 C28.75432319 5.48610965 26.50390546 6.96396459 24.25 8.4375 C23.61578125 8.85837891 22.9815625 9.27925781 22.328125 9.71289062 C21.709375 10.11572266 21.090625 10.51855469 20.453125 10.93359375 C19.88754883 11.30540771 19.32197266 11.67722168 18.73925781 12.06030273 C16.84950138 13.08131235 15.09607862 13.56432082 13 14 C13 14.66 13 15.32 13 16 C12.01 16 11.02 16 10 16 C9.67 12.7 9.34 9.4 9 6 C6.03 5.67 3.06 5.34 0 5 C0 3.35 0 1.7 0 0 Z " fill="#C54C55" transform="translate(140,90)"/>
<path d="M0 0 C1.32 0 2.64 0 4 0 C4 23.1 4 46.2 4 70 C1.525 70.495 1.525 70.495 -1 71 C-0.505 70.01 -0.505 70.01 0 69 C0.99 69 1.98 69 3 69 C3 47.22 3 25.44 3 3 C1.68 2.34 0.36 1.68 -1 1 C-0.67 0.67 -0.34 0.34 0 0 Z " fill="#C93E46" transform="translate(187,10)"/>
<path d="M0 0 C2.64 0 5.28 0 8 0 C8 0.66 8 1.32 8 2 C9.134375 2.12375 10.26875 2.2475 11.4375 2.375 C12.613125 2.58125 13.78875 2.7875 15 3 C15.33 3.66 15.66 4.32 16 5 C18.52733235 5.65555119 18.52733235 5.65555119 21 6 C21.33 6.99 21.66 7.98 22 9 C18.7 9 15.4 9 12 9 C12 7.35 12 5.7 12 4 C8.04 4 4.08 4 0 4 C0 2.68 0 1.36 0 0 Z " fill="#C14650" transform="translate(118,80)"/>
<path d="M0 0 C5 2 5 2 6 4 C4.35 3.67 2.7 3.34 1 3 C1 23.79 1 44.58 1 66 C0.67 66 0.34 66 0 66 C0 44.22 0 22.44 0 0 Z " fill="#B04A55" transform="translate(12,6)"/>
<path d="M0 0 C6.2266447 0.75934691 11.47608854 3.12756604 17 6 C17 4.35 17 2.7 17 1 C17.66 0.67 18.32 0.34 19 0 C19 3.63 19 7.26 19 11 C14.25652774 9.62309544 10.27474838 7.56160559 6.125 4.9375 C5.53203125 4.57333984 4.9390625 4.20917969 4.328125 3.83398438 C2.86464287 2.9218371 1.4292745 1.96486632 0 1 C0 0.67 0 0.34 0 0 Z " fill="#BF656D" transform="translate(35,95)"/>
<path d="M0 0 C0.33 0 0.66 0 1 0 C1 1.98 1 3.96 1 6 C-2.3 6 -5.6 6 -9 6 C-9 7.65 -9 9.3 -9 11 C-12.63 11 -16.26 11 -20 11 C-16.23312136 9.11656068 -14.97041037 8.77942165 -11 9 C-10.67 6.36 -10.34 3.72 -10 1 C-9.34 1 -8.68 1 -8 1 C-8 1.66 -8 2.32 -8 3 C-3.66770285 2.1395861 -3.66770285 2.1395861 0 0 Z " fill="#C44E57" transform="translate(74,84)"/>
<path d="M0 0 C3.24918435 0.60249776 5.13696063 1.67534743 7.6875 3.75 C11.3360773 6.60302285 15.10179936 8.80538561 19.21484375 10.921875 C21 12 21 12 22 14 C19.36 13.67 16.72 13.34 14 13 C14 12.34 14 11.68 14 11 C12.35 11 10.7 11 9 11 C8.34 9.02 7.68 7.04 7 5 C5.35 4.67 3.7 4.34 2 4 C2 3.34 2 2.68 2 2 C1.34 2 0.68 2 0 2 C0 1.34 0 0.68 0 0 Z " fill="#BA525A" transform="translate(18,10)"/>
<path d="M0 0 C3.96 0 7.92 0 12 0 C12 0.66 12 1.32 12 2 C12.99 2 13.98 2 15 2 C15 6.95 15 11.9 15 17 C14.67 17 14.34 17 14 17 C14 12.38 14 7.76 14 3 C5.81640662 3.0198249 5.81640662 3.0198249 -2 5 C-1.34 3.35 -0.68 1.7 0 0 Z " fill="#C4424D" transform="translate(74,81)"/>
<path d="M0 0 C0 1.32 0 2.64 0 4 C-1.0725 4.433125 -2.145 4.86625 -3.25 5.3125 C-6.18458275 6.55836913 -8.45857064 8.07201911 -11 10 C-12.32860925 10.35169068 -13.66158328 10.68770276 -15 11 C-15.66 11.66 -16.32 12.32 -17 13 C-17.66 12.34 -18.32 11.68 -19 11 C-18.27554688 10.54109375 -17.55109375 10.0821875 -16.8046875 9.609375 C-15.83789062 8.99578125 -14.87109375 8.3821875 -13.875 7.75 C-12.87339844 7.11449219 -11.87179688 6.47898437 -10.83984375 5.82421875 C-8.67859877 4.4359087 -6.55035603 3.02200404 -4.4375 1.5625 C-2 0 -2 0 0 0 Z " fill="#BC6168" transform="translate(176,16)"/>
<path d="M0 0 C4.11050664 1.45076705 7.53714127 3.34245725 11 6 C11 6.99 11 7.98 11 9 C5.66436996 8.82506131 5.66436996 8.82506131 3 8 C1.1193713 5.23782659 0 3.37036422 0 0 Z " fill="#C34851" transform="translate(73,45)"/>
<path d="M0 0 C0.66 0.33 1.32 0.66 2 1 C-3.11140875 6.30072018 -6.41377562 9.40500201 -14 10 C-11.19533807 7.00618646 -8.38815731 4.8006379 -4.875 2.6875 C-4.00617188 2.15511719 -3.13734375 1.62273438 -2.2421875 1.07421875 C-1.50226563 0.71972656 -0.76234375 0.36523438 0 0 Z " fill="#BF5F68" transform="translate(138,39)"/>
<path d="M0 0 C0.66 0 1.32 0 2 0 C1.68289062 0.53109375 1.36578125 1.0621875 1.0390625 1.609375 C-0.2370349 4.54535848 -0.41707021 7.06174329 -0.625 10.25 C-0.69976562 11.32765625 -0.77453125 12.4053125 -0.8515625 13.515625 C-0.90054688 14.33546875 -0.94953125 15.1553125 -1 16 C-4.63 16 -8.26 16 -12 16 C-12 17.65 -12 19.3 -12 21 C-12.33 21 -12.66 21 -13 21 C-13 19.02 -13 17.04 -13 15 C-9.37 15 -5.74 15 -2 15 C-2.02320313 14.08476562 -2.04640625 13.16953125 -2.0703125 12.2265625 C-2.08835938 11.03804687 -2.10640625 9.84953125 -2.125 8.625 C-2.14820313 7.44164063 -2.17140625 6.25828125 -2.1953125 5.0390625 C-2 2 -2 2 0 0 Z " fill="#3D3D3D" transform="translate(153,114)"/>
<path d="M0 0 C0.66 0.33 1.32 0.66 2 1 C1.67 7.6 1.34 14.2 1 21 C-2.3 21 -5.6 21 -9 21 C-9 20.67 -9 20.34 -9 20 C-7.2984375 19.5359375 -7.2984375 19.5359375 -5.5625 19.0625 C-2.21224901 18.37075469 -2.21224901 18.37075469 -1 17 C-0.76298761 14.14122091 -0.57780818 11.30116703 -0.4375 8.4375 C-0.39431641 7.63119141 -0.35113281 6.82488281 -0.30664062 5.99414062 C-0.20024738 3.99631195 -0.09959112 1.9981793 0 0 Z " fill="#D03E49" transform="translate(115,84)"/>
<path d="M0 0 C0.66 0 1.32 0 2 0 C2 0.66 2 1.32 2 2 C3.08861328 2.39832031 3.08861328 2.39832031 4.19921875 2.8046875 C7.00170928 4.00072948 9.30479352 5.40329107 11.8125 7.125 C12.60269531 7.66382813 13.39289063 8.20265625 14.20703125 8.7578125 C14.79871094 9.16773438 15.39039062 9.57765625 16 10 C15.34 10.66 14.68 11.32 14 12 C13.01 11.67 12.02 11.34 11 11 C11 10.34 11 9.68 11 9 C10.0409375 8.8453125 10.0409375 8.8453125 9.0625 8.6875 C8.0415625 8.3471875 8.0415625 8.3471875 7 8 C6.67 7.01 6.34 6.02 6 5 C5.01 5 4.02 5 3 5 C3 4.34 3 3.68 3 3 C2.34 3 1.68 3 1 3 C0.67 2.01 0.34 1.02 0 0 Z " fill="#BE5760" transform="translate(57,34)"/>
<path d="M0 0 C2 1 2 1 3 3 C2.360625 3.12375 1.72125 3.2475 1.0625 3.375 C0.381875 3.58125 -0.29875 3.7875 -1 4 C-1.33 4.66 -1.66 5.32 -2 6 C-4.8125 7.6875 -4.8125 7.6875 -8 9 C-9.32 8.67 -10.64 8.34 -12 8 C-8.04 5.36 -4.08 2.72 0 0 Z " fill="#BD616C" transform="translate(188,7)"/>
<path d="M0 0 C0.66 0.66 1.32 1.32 2 2 C3.93434605 2.63682422 3.93434605 2.63682422 6.0625 3.0625 C9.90277778 3.90277778 9.90277778 3.90277778 11 5 C11.07205511 6.68608966 11.08386068 8.37500659 11.0625 10.0625 C11.05347656 10.98160156 11.04445312 11.90070313 11.03515625 12.84765625 C11.02355469 13.55792969 11.01195312 14.26820312 11 15 C11.66 15.33 12.32 15.66 13 16 C12.01 16 11.02 16 10 16 C9.67 12.7 9.34 9.4 9 6 C6.03 5.67 3.06 5.34 0 5 C0 3.35 0 1.7 0 0 Z " fill="#B65862" transform="translate(140,90)"/>
<path d="M0 0 C0.66 0.33 1.32 0.66 2 1 C1 4 1 4 -1.5 5.5 C-5.59746875 7.25605804 -9.74876623 8.66794675 -14 10 C-11.59047014 7.33515572 -8.97326069 5.67253317 -5.875 3.875 C-2.7548618 2.1820261 -2.7548618 2.1820261 0 0 Z " fill="#BD646F" transform="translate(122,49)"/>
<path d="M0 0 C11.06617647 3.60294118 11.06617647 3.60294118 14 7 C11.36 6.67 8.72 6.34 6 6 C6 5.34 6 4.68 6 4 C4.35 4 2.7 4 1 4 C0.67 2.68 0.34 1.36 0 0 Z " fill="#C5484F" transform="translate(26,17)"/>
<path d="M0 0 C5.1588796 2.79725916 10.17342499 5.658525 15 9 C14.01 9.495 14.01 9.495 13 10 C10.1875 8.75 10.1875 8.75 7 7 C6.05125 6.484375 5.1025 5.96875 4.125 5.4375 C3.42375 4.963125 2.7225 4.48875 2 4 C2 3.34 2 2.68 2 2 C1.34 2 0.68 2 0 2 C0 1.34 0 0.68 0 0 Z " fill="#BB5A63" transform="translate(41,24)"/>
<path d="M0 0 C0.33 0 0.66 0 1 0 C1 3.63 1 7.26 1 11 C0.34 11 -0.32 11 -1 11 C-1 10.01 -1 9.02 -1 8 C-1.99 8 -2.98 8 -4 8 C-4 7.34 -4 6.68 -4 6 C-3.01 6 -2.02 6 -1 6 C-1.020625 5.195625 -1.04125 4.39125 -1.0625 3.5625 C-1 1 -1 1 0 0 Z " fill="#B74F5B" transform="translate(53,95)"/>
<path d="M0 0 C0.33 0 0.66 0 1 0 C1 1.98 1 3.96 1 6 C-2.3 6 -5.6 6 -9 6 C-8.67 5.34 -8.34 4.68 -8 4 C-7.030625 3.855625 -6.06125 3.71125 -5.0625 3.5625 C-4.051875 3.376875 -3.04125 3.19125 -2 3 C-1.34 2.01 -0.68 1.02 0 0 Z " fill="#BC656F" transform="translate(74,84)"/>
<path d="M0 0 C5 2 5 2 6 4 C4.35 3.67 2.7 3.34 1 3 C1 7.95 1 12.9 1 18 C0.67 18 0.34 18 0 18 C0 12.06 0 6.12 0 0 Z " fill="#AC525D" transform="translate(12,6)"/>
<path d="M0 0 C2.64 0 5.28 0 8 0 C8 0.66 8 1.32 8 2 C8.66 2.33 9.32 2.66 10 3 C6.7 3 3.4 3 0 3 C0 2.01 0 1.02 0 0 Z " fill="#C33B44" transform="translate(118,80)"/>
<path d="M0 0 C-2.94885691 2.94885691 -6.0528418 4.6842806 -10 6 C-10 4.68 -10 3.36 -10 2 C-3.375 -1.125 -3.375 -1.125 0 0 Z " fill="#CC3D43" transform="translate(186,14)"/>
<path d="M0 0 C0.33 0.66 0.66 1.32 1 2 C1.66 2 2.32 2 3 2 C3 2.66 3 3.32 3 4 C3.66 4.33 4.32 4.66 5 5 C3.35 5.33 1.7 5.66 0 6 C-0.66 4.68 -1.32 3.36 -2 2 C-1.34 2 -0.68 2 0 2 C0 1.34 0 0.68 0 0 Z " fill="#C9414A" transform="translate(35,89)"/>
<path d="M0 0 C2.64 0.33 5.28 0.66 8 1 C8.33 2.32 8.66 3.64 9 5 C5.12867972 4.42647107 2.91827204 2.51295648 0 0 Z " fill="#C66D74" transform="translate(24,88)"/>
<path d="M0 0 C0.33 0.66 0.66 1.32 1 2 C2.32 2 3.64 2 5 2 C5 1.34 5 0.68 5 0 C5.99 0.33 6.98 0.66 8 1 C5.37801226 3.15377564 3.35595828 4.40072174 0 5 C0 3.35 0 1.7 0 0 Z " fill="#B14D5A" transform="translate(151,100)"/>
<path d="M0 0 C1.32 0 2.64 0 4 0 C4 0.66 4 1.32 4 2 C-1.41176471 6 -1.41176471 6 -4 6 C-3.67 5.01 -3.34 4.02 -3 3 C-2.01 3 -1.02 3 0 3 C0 2.01 0 1.02 0 0 Z " fill="#B64F56" transform="translate(175,87)"/>
<path d="M0 0 C3.66881155 0.70554068 6.70450534 2.27735506 10 4 C9.01 4.66 8.02 5.32 7 6 C3.31197956 4.77065985 2.27643027 3.06140622 0 0 Z " fill="#CB3C45" transform="translate(86,56)"/>
<path d="M0 0 C0.66 0.33 1.32 0.66 2 1 C2 1.99 2 2.98 2 4 C-0.64 4.33 -3.28 4.66 -6 5 C-4.06745228 2.9754262 -2.36841312 1.57894208 0 0 Z " fill="#C5676F" transform="translate(155,28)"/>
<path d="M0 0 C-2.97 1.65 -5.94 3.3 -9 5 C-8 2 -8 2 -5.625 0.25 C-3 -1 -3 -1 0 0 Z " fill="#FCE3E7" transform="translate(160,26)"/>
<path d="M0 0 C0 1.32 0 2.64 0 4 C-2.31 4.66 -4.62 5.32 -7 6 C-5.52522876 2.59668175 -4.14385429 0 0 0 Z " fill="#BC535B" transform="translate(176,16)"/>
<path d="M0 0 C1.32 0.33 2.64 0.66 4 1 C-1.75 5 -1.75 5 -4 5 C-4 4.01 -4 3.02 -4 2 C-2.68 2 -1.36 2 0 2 C0 1.34 0 0.68 0 0 Z " fill="#B8535B" transform="translate(167,93)"/>
<path d="M0 0 C0.66 0.33 1.32 0.66 2 1 C1.67 2.32 1.34 3.64 1 5 C-1.97 4.505 -1.97 4.505 -5 4 C-3.35 2.68 -1.7 1.36 0 0 Z " fill="#C9606F" transform="translate(106,59)"/>
</svg>
